<svg xmlns="http://www.w3.org/2000/svg" version="1.1" xmlns:xlink="http://www.w3.org/1999/xlink" xmlns:svgjs="http://svgjs.dev/svgjs" width="2000" height="1500" viewBox="0 0 2000 1500"><rect width="2000" height="1500" fill="#ffffff"></rect><g transform="matrix(0.49407114624505927,0,0,0.49407114624505927,506.802306745286,250.4048582995951)"><svg viewBox="0 0 244 247" data-background-color="#ffffff" preserveAspectRatio="xMidYMid meet" height="2024" width="2000" xmlns="http://www.w3.org/2000/svg" xmlns:xlink="http://www.w3.org/1999/xlink"><g id="tight-bounds" transform="matrix(1,0,0,1,-0.21567999999996346,-0.09999999999999432)"><svg viewBox="0 0 244.43135999999996 247.2" height="247.2" width="244.43135999999996"><g><svg></svg></g><g><svg viewBox="0 0 244.43135999999996 247.2" height="247.2" width="244.43135999999996"><g transform="matrix(1,0,0,1,0,103.34097320703654)"><svg viewBox="0 0 244.43135999999996 40.51805358592692" height="40.51805358592692" width="244.43135999999996"><g><svg viewBox="0 0 244.43135999999996 40.51805358592692" height="40.51805358592692" width="244.43135999999996"><g><svg viewBox="0 0 244.43135999999996 40.51805358592692" height="40.51805358592692" width="244.43135999999996"><g><svg viewBox="0 0 244.43135999999996 40.51805358592692" height="40.51805358592692" width="244.43135999999996"><g id="textblocktransform"><svg viewBox="0 0 244.43135999999996 40.51805358592692" height="40.51805358592692" width="244.43135999999996" id="textblock"><g><svg viewBox="0 0 244.43135999999996 40.51805358592692" height="40.51805358592692" width="244.43135999999996"><g transform="matrix(1,0,0,1,0,0)"><svg width="244.43135999999996" viewBox="-0.55 -36.35 221.68 36.75" height="40.51805358592692" data-palette-color="#264f0b"><path d="M38.1 0L30.4 0 27.05-7.8 10.65-7.8 7.3 0-0.55 0 15.65-35.25 21.9-35.25 38.1 0ZM18.85-26.9L13.2-13.7 24.5-13.7 18.85-26.9ZM55.65-25.15Q58.85-25.15 61.3-23.6 63.75-22.05 65.12-19.18 66.5-16.3 66.5-12.5L66.5-12.5Q66.5-8.7 65.12-5.78 63.75-2.85 61.27-1.23 58.8 0.4 55.65 0.4L55.65 0.4Q53.1 0.4 51.05-0.68 49-1.75 47.9-3.65L47.9-3.65 47.9 0 40.45 0 40.45-35.25 48-35.25 48-21.25Q49.1-23.1 51.12-24.13 53.15-25.15 55.65-25.15L55.65-25.15ZM53.45-5.35Q56.1-5.35 57.55-7.23 59-9.1 59-12.5L59-12.5Q59-15.85 57.55-17.63 56.1-19.4 53.45-19.4L53.45-19.4Q50.8-19.4 49.35-17.57 47.9-15.75 47.9-12.4L47.9-12.4Q47.9-9 49.35-7.18 50.8-5.35 53.45-5.35L53.45-5.35ZM86.5-25.15Q90.9-25.15 93.05-22.58 95.2-20 95.2-14.8L95.2-14.8 95.2 0 87.65 0 87.65-14.45Q87.65-16.95 86.72-18.1 85.8-19.25 83.85-19.25L83.85-19.25Q81.5-19.25 80.07-17.75 78.65-16.25 78.65-13.75L78.65-13.75 78.65 0 71.1 0 71.1-35.25 78.65-35.25 78.65-21.3Q79.95-23.2 81.97-24.18 84-25.15 86.5-25.15L86.5-25.15ZM108.39 0L100.84 0 100.84-24.55 108.39-24.55 108.39 0ZM100.59-29.3L100.59-36.35 108.69-36.35 108.69-29.3 100.59-29.3ZM123.64 0.4Q120.24 0.4 117.42-0.38 114.59-1.15 112.54-2.6L112.54-2.6 114.54-7.8Q116.54-6.45 118.94-5.7 121.34-4.95 123.79-4.95L123.79-4.95Q125.54-4.95 126.52-5.53 127.49-6.1 127.49-7.1L127.49-7.1Q127.49-8 126.82-8.5 126.14-9 124.29-9.4L124.29-9.4 120.29-10.3Q116.74-11.1 115.07-12.78 113.39-14.45 113.39-17.35L113.39-17.35Q113.39-19.65 114.72-21.4 116.04-23.15 118.47-24.15 120.89-25.15 123.99-25.15L123.99-25.15Q126.64-25.15 129.14-24.35 131.64-23.55 133.64-22.1L133.64-22.1 131.64-17.1Q127.74-19.8 123.94-19.8L123.94-19.8Q122.19-19.8 121.19-19.2 120.19-18.6 120.19-17.5L120.19-17.5Q120.19-16.7 120.79-16.25 121.39-15.8 122.89-15.4L122.89-15.4 127.04-14.45Q130.79-13.6 132.52-11.88 134.24-10.15 134.24-7.2L134.24-7.2Q134.24-3.65 131.42-1.63 128.59 0.4 123.64 0.4L123.64 0.4ZM153.94-25.15Q158.34-25.15 160.49-22.58 162.64-20 162.64-14.8L162.64-14.8 162.64 0 155.09 0 155.09-14.45Q155.09-16.95 154.16-18.1 153.24-19.25 151.29-19.25L151.29-19.25Q148.94-19.25 147.51-17.75 146.09-16.25 146.09-13.75L146.09-13.75 146.09 0 138.54 0 138.54-35.25 146.09-35.25 146.09-21.3Q147.39-23.2 149.41-24.18 151.44-25.15 153.94-25.15L153.94-25.15ZM190.39-12.7L190.39-10.85 174.39-10.85Q174.74-7.9 176.31-6.58 177.89-5.25 180.79-5.25L180.79-5.25Q182.69-5.25 184.56-5.88 186.44-6.5 187.99-7.65L187.99-7.65 189.99-2.6Q188.19-1.2 185.61-0.4 183.04 0.4 180.44 0.4L180.44 0.4Q174.24 0.4 170.66-3.03 167.09-6.45 167.09-12.35L167.09-12.35Q167.09-16.1 168.64-19 170.19-21.9 172.94-23.53 175.69-25.15 179.19-25.15L179.19-25.15Q184.34-25.15 187.36-21.8 190.39-18.45 190.39-12.7L190.39-12.7ZM179.39-19.95Q177.24-19.95 175.96-18.57 174.69-17.2 174.39-14.6L174.39-14.6 184.04-14.6Q183.89-17.25 182.71-18.6 181.54-19.95 179.39-19.95L179.39-19.95ZM210.23-12.8L221.13 0 211.88 0 202.48-10.95 202.48 0 194.93 0 194.93-35.25 202.48-35.25 202.48-14.05 211.53-24.5 220.53-24.5 210.23-12.8Z" opacity="1" transform="matrix(1,0,0,1,0,0)" fill="#264f0b" class="wordmark-text-0" data-fill-palette-color="primary" id="text-0"></path></svg></g></svg></g></svg></g></svg></g><g></g></svg></g></svg></g></svg></g><path d="M0 97.341L0 1 244.431 1 244.431 97.341 240.777 97.341 240.777 4.654 3.654 4.654 3.654 97.341 0 97.341M0 149.859L0 246.2 244.431 246.2 244.431 149.859 240.777 149.859 240.777 242.546 3.654 242.546 3.654 149.859 0 149.859" fill="#264f0b" stroke="transparent" data-fill-palette-color="tertiary"></path></svg></g><defs></defs></svg><rect width="244.43135999999996" height="247.2" fill="none" stroke="none" visibility="hidden"></rect></g></svg></g></svg>