<?xml version="1.0" standalone="no"?>
<!DOCTYPE svg PUBLIC "-//W3C//DTD SVG 20010904//EN"
 "http://www.w3.org/TR/2001/REC-SVG-20010904/DTD/svg10.dtd">
<svg version="1.0" xmlns="http://www.w3.org/2000/svg"
 width="800.000000pt" height="800.000000pt" viewBox="0 0 800.000000 800.000000"
 preserveAspectRatio="xMidYMid meet">

<g transform="translate(0.000000,800.000000) scale(0.100000,-0.100000)"
fill="#000000" stroke="none">
<path d="M3580 7970 c-46 -4 -86 -12 -88 -18 -2 -6 -9 -9 -16 -6 -7 3 -19 -2
-26 -10 -7 -9 -16 -14 -20 -11 -10 6 -151 -45 -219 -80 -28 -14 -66 -38 -84
-55 -19 -16 -39 -30 -44 -30 -15 0 -93 -85 -93 -102 0 -9 -18 -47 -41 -84 -23
-38 -39 -59 -36 -46 3 15 0 22 -9 22 -8 0 -14 -4 -14 -10 0 -5 -13 -25 -30
-43 -16 -19 -30 -40 -30 -46 0 -6 -4 -11 -9 -11 -9 0 -100 -117 -150 -195 -41
-63 -120 -229 -128 -268 -3 -16 -12 -31 -19 -34 -9 -3 -14 -20 -14 -44 0 -21
-6 -42 -13 -46 -16 -10 -37 -79 -37 -120 0 -17 -7 -36 -15 -43 -13 -11 -13
-15 -3 -21 10 -6 9 -11 -5 -21 -25 -19 -35 -86 -13 -94 25 -10 19 -24 -10 -24
-20 0 -25 -4 -20 -16 3 -8 0 -27 -8 -42 -20 -41 -28 -94 -31 -231 -2 -78 -8
-127 -15 -131 -6 -4 -10 -11 -8 -16 1 -5 -3 -25 -10 -45 -13 -37 -12 -145 1
-166 4 -6 2 -44 -4 -83 -9 -53 -9 -80 -1 -109 7 -20 14 -71 17 -112 2 -42 12
-90 21 -109 13 -25 17 -57 15 -140 -1 -85 1 -109 14 -120 19 -16 10 -57 -21
-91 -14 -14 -21 -28 -18 -32 4 -4 2 -13 -5 -21 -9 -11 -9 -15 1 -19 7 -3 4 -6
-8 -6 -19 -1 -22 -9 -28 -93 -12 -172 -6 -252 23 -298 14 -20 19 -12 30 50 22
126 50 250 60 269 6 11 11 29 11 41 0 13 4 18 11 14 6 -3 9 -15 6 -25 -3 -12
5 -30 21 -48 15 -16 35 -46 46 -67 10 -22 22 -46 27 -54 21 -36 22 -44 4 -54
-37 -21 -83 -72 -106 -116 -41 -77 -28 -177 33 -248 15 -18 28 -37 28 -42 0
-6 5 -10 11 -10 7 0 30 -9 53 -19 23 -11 48 -22 57 -24 12 -4 15 -18 13 -66
-1 -33 -6 -65 -9 -71 -4 -6 -5 -12 -4 -13 2 -1 18 -9 34 -18 39 -20 40 -67 1
-102 -14 -13 -26 -27 -26 -31 0 -14 26 -4 51 20 15 14 32 23 38 20 13 -8 51
-134 51 -169 0 -14 5 -38 11 -54 61 -160 121 -518 90 -537 -5 -4 -33 -50 -61
-103 -91 -171 -114 -201 -157 -209 -144 -26 -382 -147 -493 -250 -25 -23 -68
-53 -96 -67 -28 -14 -95 -54 -150 -88 -177 -111 -377 -200 -1014 -449 -154
-60 -461 -210 -559 -273 -36 -24 -106 -63 -155 -88 -56 -28 -93 -53 -101 -69
-7 -14 -29 -41 -49 -59 l-36 -35 0 -803 0 -803 4000 0 4000 0 0 695 0 695 -66
95 c-36 52 -78 104 -94 115 -16 12 -29 26 -27 32 1 6 -19 23 -44 37 -25 14
-86 51 -135 82 -49 31 -109 66 -134 79 -25 12 -65 37 -90 55 -25 18 -82 51
-126 73 -45 23 -127 68 -183 102 -183 110 -388 199 -766 335 -130 46 -286 120
-435 206 -52 30 -135 75 -183 99 -49 25 -120 70 -158 100 -65 51 -185 120
-271 154 -31 12 -42 25 -71 88 -19 41 -50 100 -70 131 -36 56 -37 59 -32 136
3 47 13 97 25 125 40 95 91 259 105 341 9 53 35 137 47 150 6 6 16 0 29 -17
11 -15 35 -36 53 -48 28 -16 39 -18 61 -10 23 9 25 13 15 25 -7 8 -23 15 -35
15 -50 0 -97 99 -61 129 10 8 19 7 37 -7 28 -22 67 -34 74 -22 2 4 0 21 -4 38
-7 22 -6 32 2 36 7 2 5 5 -4 5 -20 1 -30 22 -24 52 2 11 -3 28 -11 37 -14 14
-14 16 7 27 12 7 30 11 38 10 9 -2 19 -4 24 -4 4 -1 7 -15 7 -32 0 -29 2 -30
37 -27 40 3 71 35 75 78 2 14 8 31 15 38 7 7 9 20 6 29 -4 11 -8 13 -11 5 -2
-7 -9 -12 -15 -12 -6 0 -19 -7 -29 -17 -34 -31 -31 -3 5 36 64 71 77 171 32
247 -14 24 -29 44 -33 44 -4 1 -25 17 -47 36 -31 27 -35 35 -20 33 53 -4 55
-2 50 49 -3 36 1 52 15 70 21 26 30 28 30 7 0 -8 4 -15 9 -15 14 0 34 -68 28
-97 -3 -14 3 -53 13 -87 10 -33 19 -56 20 -51 1 6 5 -1 10 -15 l7 -25 12 28
c11 29 36 133 52 222 11 59 7 82 -28 192 -22 68 -24 85 -13 98 18 21 30 19 30
-7 0 -46 15 -3 17 50 4 94 9 123 22 132 8 4 10 16 6 29 -4 13 -2 21 5 21 6 0
9 8 6 18 -8 25 8 77 25 77 10 0 13 9 11 32 -2 17 4 46 13 63 11 21 16 50 13
83 -3 44 0 53 18 62 16 8 19 15 13 38 -4 16 -3 25 2 21 5 -3 10 21 10 53 1 58
1 63 -8 95 -3 9 4 24 16 34 11 10 18 22 15 26 -3 5 4 34 16 64 20 49 22 66 16
154 -3 62 -2 101 4 105 6 3 7 18 4 32 -4 14 -8 35 -9 47 -1 11 -3 26 -4 33 0
6 -7 18 -13 25 -32 34 -59 80 -57 96 5 32 -11 69 -36 86 -30 20 -66 91 -58
114 5 14 3 15 -7 5 -11 -10 -17 -9 -32 4 -10 9 -18 20 -18 26 0 5 -13 29 -30
54 -16 24 -30 48 -30 54 0 5 -5 9 -10 9 -6 0 -8 10 -4 24 4 17 -2 33 -25 59
-17 19 -43 61 -56 92 -15 34 -45 75 -73 102 -48 46 -125 103 -138 103 -4 0
-22 11 -40 25 -18 14 -42 25 -54 25 -12 0 -18 4 -15 10 4 6 11 7 17 4 7 -4 8
-2 4 4 -9 15 -33 16 -38 1 -2 -7 -11 -7 -28 1 -23 9 -23 10 -2 6 12 -2 22 0
22 5 0 5 -11 9 -25 9 -14 0 -28 6 -31 14 -3 7 -22 19 -43 26 -28 9 -64 40
-127 108 -175 187 -174 186 -259 221 -44 18 -105 45 -135 60 -30 16 -85 38
-121 50 -36 12 -75 30 -86 40 -11 10 -29 21 -40 25 -11 3 -25 17 -30 29 -6 12
-28 31 -49 42 -21 11 -46 28 -56 37 -9 10 -29 20 -43 24 -14 3 -25 10 -25 15
0 5 -7 9 -15 9 -7 0 -18 6 -22 13 -4 6 -17 13 -28 15 -31 4 -44 8 -49 13 -3 3
-40 2 -83 -3 -49 -5 -88 -5 -107 2 -32 11 -156 11 -286 0z m540 -40 c13 -8 13
-10 -2 -10 -9 0 -20 5 -23 10 -8 13 5 13 25 0z m-720 -44 c0 -3 -4 -8 -10 -11
-5 -3 -10 -1 -10 4 0 6 5 11 10 11 6 0 10 -2 10 -4z m520 -20 c0 -11 -19 -15
-25 -6 -3 5 1 10 9 10 9 0 16 -2 16 -4z m-615 -36 c-3 -5 -11 -10 -16 -10 -6
0 -7 5 -4 10 3 6 11 10 16 10 6 0 7 -4 4 -10z m-41 -15 c-6 -14 -34 -35 -48
-35 -7 0 38 50 46 50 4 0 5 -7 2 -15z m481 -6 c10 -14 1 -21 -19 -13 -9 3 -13
10 -10 15 7 12 21 11 29 -2z m-536 -56 c-8 -10 -26 -31 -41 -47 -20 -22 -25
-32 -16 -37 9 -6 8 -10 -5 -15 -10 -3 -21 -4 -24 -1 -7 7 78 116 91 117 5 0 2
-8 -5 -17z m-312 -290 c-9 -9 -19 -14 -23 -11 -10 10 6 28 24 28 15 0 15 -1
-1 -17z m2504 -423 l24 -21 -32 16 c-32 15 -42 25 -24 25 5 0 19 -9 32 -20z
m-2761 -70 c0 -5 -2 -10 -4 -10 -3 0 -8 5 -11 10 -3 6 -1 10 4 10 6 0 11 -4
11 -10z m1135 -636 c39 -3 104 -6 145 -8 154 -5 153 -4 147 -25 -4 -17 3 -19
76 -20 44 -1 82 -3 86 -3 3 -1 33 2 66 7 33 5 64 8 68 6 5 -1 45 -3 89 -6 54
-3 86 -9 97 -19 10 -9 21 -16 24 -16 10 0 47 -31 71 -59 12 -13 41 -45 66 -72
99 -105 177 -199 164 -199 -4 0 2 -10 13 -22 28 -31 43 -62 43 -89 0 -13 9
-33 21 -45 22 -24 56 -79 65 -106 4 -10 10 -18 15 -18 14 0 11 -20 -6 -37 -12
-11 -14 -26 -9 -58 4 -27 2 -45 -5 -50 -6 -3 -9 -11 -6 -16 4 -5 -5 -20 -19
-33 -14 -13 -26 -28 -26 -35 0 -6 -6 -11 -14 -11 -7 0 -19 -7 -26 -15 -7 -8
-27 -15 -44 -15 -17 0 -47 -4 -66 -10 -19 -5 -89 -14 -155 -19 -66 -5 -151
-17 -190 -25 -61 -14 -75 -21 -112 -61 -23 -25 -46 -45 -51 -45 -6 0 -8 -9 -5
-21 3 -12 2 -24 -3 -28 -17 -12 -44 -60 -44 -80 0 -10 -6 -21 -14 -24 -33 -13
-2 -147 67 -287 31 -63 57 -89 57 -56 0 8 10 16 23 18 17 2 21 9 20 28 -4 47
-7 60 -14 60 -4 0 -9 9 -12 20 -3 13 0 20 10 20 8 0 12 -4 8 -10 -8 -13 25
-49 40 -43 7 2 16 0 20 -6 3 -6 20 -11 36 -11 25 0 28 2 17 13 -7 7 -33 19
-57 26 -51 15 -44 32 15 34 38 1 60 -2 159 -23 28 -6 82 -9 122 -7 68 4 138
-5 175 -24 27 -14 32 -12 84 31 27 22 54 40 60 40 7 0 19 15 27 33 12 25 14
42 6 79 -10 44 -14 48 -71 77 -35 18 -83 34 -112 36 -28 3 -58 7 -66 10 -8 2
-49 9 -90 15 -95 13 -145 29 -132 42 5 5 69 14 143 20 187 15 229 15 237 1 4
-7 35 -30 67 -51 38 -24 71 -56 89 -85 17 -26 37 -47 46 -47 12 0 15 -11 15
-55 -1 -30 -4 -57 -7 -61 -4 -3 -2 -18 4 -33 6 -14 10 -41 9 -60 -1 -19 4 -38
11 -42 9 -6 12 -31 11 -83 -3 -72 9 -105 27 -76 5 7 9 -1 12 -21 6 -35 -10
-58 -24 -36 -5 8 -8 3 -8 -11 0 -13 4 -20 10 -17 6 3 10 -4 10 -16 0 -17 3
-19 14 -10 9 8 16 8 20 2 4 -5 2 -12 -2 -15 -5 -3 -8 -24 -6 -46 1 -23 -1 -38
-7 -35 -7 5 -14 -58 -7 -67 1 -2 -5 -14 -12 -28 -16 -28 -21 -47 -21 -72 0
-10 -4 -20 -10 -23 -5 -4 -9 -15 -9 -26 0 -20 -75 -99 -93 -99 -5 0 -7 -6 -4
-14 3 -8 -2 -16 -15 -19 -11 -3 -17 -10 -14 -15 3 -5 -5 -15 -18 -22 -13 -7
-29 -23 -36 -36 -7 -13 -16 -21 -21 -19 -4 3 -19 -10 -33 -27 -14 -18 -33 -40
-41 -49 -8 -9 -15 -21 -15 -27 0 -15 -17 -16 -25 -2 -4 6 -10 8 -15 5 -5 -3
-15 4 -24 16 -11 16 -29 23 -65 27 -38 3 -54 10 -65 28 -13 19 -22 22 -50 17
-20 -3 -46 1 -67 11 -19 9 -50 16 -69 16 -126 0 -146 4 -188 42 -22 20 -49 39
-61 43 -34 10 -25 22 44 56 74 36 80 42 61 58 -10 8 -23 7 -50 -4 -21 -9 -45
-15 -54 -14 -10 1 -47 1 -83 0 -58 -1 -67 -4 -72 -21 -3 -11 0 -20 5 -20 6 0
5 -6 -2 -15 -7 -8 -10 -15 -7 -15 3 0 -8 -15 -25 -32 -16 -18 -36 -46 -43 -62
-12 -28 -12 -28 -31 -8 -30 31 -84 54 -114 49 -36 -8 -50 8 -50 55 0 43 -10
48 -33 16 -14 -20 -18 -21 -26 -8 -8 10 -11 11 -11 2 0 -7 -11 -17 -25 -22
-14 -5 -25 -14 -25 -20 0 -5 -11 -10 -24 -10 -13 0 -26 -3 -28 -7 -6 -15 -77
-63 -92 -63 -9 0 -16 -4 -16 -9 0 -18 -33 -21 -52 -5 -13 13 -34 17 -79 15
-69 -2 -94 -10 -128 -40 -28 -24 -61 -28 -61 -6 0 20 -59 20 -66 1 -3 -8 -12
-12 -20 -9 -10 4 -12 0 -7 -13 4 -11 3 -15 -5 -10 -6 4 -21 -3 -32 -14 l-20
-20 27 -6 c26 -5 28 -9 25 -45 -4 -42 9 -86 40 -131 10 -14 18 -33 18 -42 0
-9 7 -19 15 -22 8 -4 13 -10 10 -14 -3 -5 4 -12 16 -15 13 -4 25 -2 29 5 6 9
23 11 58 6 31 -4 53 -3 57 4 3 5 15 10 26 10 10 0 19 5 19 10 0 7 6 7 18 2 9
-5 23 -7 30 -5 6 3 12 0 12 -6 0 -6 7 -8 15 -5 8 4 15 2 15 -4 0 -5 12 -13 27
-17 20 -5 31 -2 41 12 10 15 14 15 21 4 7 -11 11 -9 20 8 8 14 8 21 1 21 -5 0
-10 5 -10 10 0 6 9 10 20 10 11 0 20 -6 20 -12 0 -9 3 -8 10 2 6 10 23 14 52
13 24 -2 140 -4 258 -5 118 -2 221 -7 228 -12 7 -4 11 -14 8 -22 -7 -17 6 -18
22 -2 6 6 15 8 19 4 4 -4 2 -11 -5 -15 -18 -11 -21 -79 -5 -93 11 -9 10 -15
-9 -36 -46 -49 -101 -64 -256 -70 -129 -4 -148 -2 -203 18 -49 17 -71 20 -112
14 -29 -4 -60 -7 -69 -5 -10 1 -18 -3 -18 -8 0 -6 5 -11 10 -11 6 0 16 -11 22
-25 15 -34 107 -78 183 -88 153 -20 406 -13 440 12 5 4 24 8 42 9 47 3 83 19
83 37 0 9 9 15 25 15 16 0 25 6 25 15 0 27 39 57 65 51 18 -5 28 1 44 23 12
16 21 36 21 45 0 9 3 16 8 17 76 9 98 5 109 -17 6 -12 7 -26 2 -31 -5 -5 -10
-35 -13 -68 -2 -33 -5 -63 -5 -67 -1 -5 -8 -8 -16 -8 -8 0 -15 -8 -15 -18 0
-10 -7 -27 -15 -38 -8 -10 -15 -31 -15 -46 0 -20 -5 -28 -18 -28 -13 0 -28
-19 -47 -60 -29 -61 -58 -89 -91 -89 -39 -1 -65 -6 -72 -16 -9 -14 -143 -16
-159 -3 -7 5 -18 6 -25 1 -39 -25 -82 -31 -139 -21 -45 8 -63 7 -74 -2 -8 -7
-22 -10 -30 -6 -9 3 -49 8 -91 12 -55 5 -78 3 -91 -7 -21 -18 -54 -20 -121 -7
-30 5 -66 11 -80 12 -49 4 -112 18 -112 25 0 4 -16 13 -35 20 -19 7 -49 24
-65 38 -17 14 -42 26 -57 27 -17 1 -35 13 -52 36 -14 19 -34 44 -43 54 -18 20
-50 115 -43 127 3 4 -2 10 -11 13 -10 4 -14 14 -11 26 3 13 0 20 -9 20 -13 0
-19 18 -15 48 1 6 -2 12 -8 12 -5 0 -12 -6 -15 -12 -3 -7 -4 5 -1 28 4 32 2
41 -11 41 -12 0 -14 -7 -10 -28 7 -38 -11 -47 -25 -12 l-11 28 -13 -24 -13
-24 -6 21 c-4 12 -14 22 -22 22 -8 0 -13 3 -13 8 4 24 -3 33 -21 27 -11 -4
-20 -2 -20 4 0 6 -6 11 -14 11 -16 0 -56 117 -56 166 0 19 -4 33 -9 30 -5 -3
-12 16 -17 42 -4 26 -8 49 -9 52 -1 3 -7 23 -13 45 -16 53 -16 115 1 115 6 0
4 5 -5 11 -22 12 -22 27 -2 68 19 37 14 79 -15 143 -11 26 -21 54 -21 63 0 9
-11 38 -25 65 -14 27 -27 74 -30 107 -3 32 -8 71 -11 87 -6 28 -7 29 -20 11
-8 -10 -17 -16 -20 -12 -4 4 -9 60 -12 125 -4 96 0 139 17 228 12 60 28 147
36 194 8 47 19 108 25 135 6 28 13 66 16 85 3 19 8 37 12 40 4 3 8 14 10 25 5
36 8 45 20 57 7 7 12 27 12 45 0 30 17 82 31 93 4 3 16 26 28 52 11 26 26 50
32 53 6 4 7 19 4 35 -4 16 -2 31 5 35 5 3 8 10 5 15 -3 5 -1 11 5 15 5 3 10
19 10 36 0 16 5 29 10 29 6 0 10 8 10 19 0 10 6 24 14 30 10 8 13 23 9 46 -4
24 -1 39 11 50 11 12 16 32 15 67 -2 44 1 54 24 74 15 13 27 28 27 34 0 10 13
14 35 11 6 0 11 9 12 20 1 12 3 22 5 23 2 1 30 14 63 28 68 30 97 38 175 44
62 5 120 23 135 41 10 12 110 21 175 15 19 -2 67 -6 105 -8z m825 -1224 c0 -5
-36 -27 -80 -49 -88 -43 -107 -40 -32 6 75 47 112 61 112 43z m-40 -124 c0
-38 6 -60 20 -79 11 -14 20 -28 20 -30 0 -3 -30 3 -67 14 -38 10 -74 17 -80
14 -16 -6 -43 4 -43 16 0 5 7 9 15 9 8 0 15 6 15 13 0 14 96 97 111 97 5 0 9
-24 9 -54z m315 9 c14 -17 25 -39 25 -47 0 -28 -70 -78 -109 -78 -25 0 -25 -3
-1 45 11 22 20 58 20 81 0 38 2 42 20 37 12 -3 32 -20 45 -38z m-227 -2 c-5
-26 -38 -29 -38 -4 0 15 6 21 21 21 14 0 19 -5 17 -17z m84 -15 c-15 -15 -26
-4 -18 18 5 13 9 15 18 6 9 -9 9 -15 0 -24z m628 -298 c0 -5 -5 -10 -11 -10
-5 0 -7 5 -4 10 3 6 8 10 11 10 2 0 4 -4 4 -10z m327 -12 c-3 -8 -6 -5 -6 6
-1 11 2 17 5 13 3 -3 4 -12 1 -19z m-3064 -110 c19 -42 22 -84 6 -93 -6 -4 -8
-13 -5 -21 3 -8 -2 -18 -11 -21 -21 -8 -54 30 -72 84 -13 39 -13 42 13 70 14
15 29 37 33 48 6 18 7 18 13 -5 3 -14 14 -42 23 -62z m2832 -168 c-4 -12 -9
-19 -12 -17 -3 3 -2 15 2 27 4 12 9 19 12 17 3 -3 2 -15 -2 -27z m-1760 -500
c69 1 161 13 173 22 6 6 42 9 80 8 37 -2 79 -2 94 -2 15 1 30 -3 33 -8 4 -6
30 -10 60 -10 30 0 57 -4 60 -10 3 -5 26 -10 49 -10 27 0 48 -6 56 -15 7 -9
15 -13 18 -10 3 3 11 0 19 -6 7 -6 13 -8 13 -4 0 5 9 0 20 -10 10 -9 26 -15
35 -11 17 6 86 -34 82 -47 -1 -5 -39 -10 -83 -11 -61 -2 -90 -8 -124 -25 -25
-13 -53 -27 -62 -32 -10 -5 -20 -5 -23 1 -4 6 -11 7 -17 4 -5 -3 -60 -8 -121
-9 -104 -3 -164 6 -194 28 -7 5 -35 6 -63 2 -63 -9 -130 2 -130 21 0 16 -2 17
-89 18 -37 1 -66 6 -68 13 -2 6 16 28 40 49 24 22 52 51 61 66 18 27 18 27 35
8 10 -13 28 -20 46 -20z m-381 -11 c-3 -5 -10 -7 -15 -3 -5 3 -7 10 -3 15 3 5
10 7 15 3 5 -3 7 -10 3 -15z m1216 -325 c0 -13 -29 -33 -56 -40 -28 -6 -28 -6
-9 9 11 9 26 17 33 17 6 0 12 5 12 10 0 6 5 10 10 10 6 0 10 -3 10 -6z m-1380
-184 c0 -5 -2 -10 -4 -10 -3 0 -8 5 -11 10 -3 6 -1 10 4 10 6 0 11 -4 11 -10z
m17 -643 c10 -15 63 -34 120 -43 23 -3 44 -13 47 -21 4 -9 13 -12 25 -8 11 3
22 1 26 -5 3 -6 21 -17 38 -24 18 -8 55 -35 82 -61 28 -26 65 -54 83 -61 18
-8 35 -21 39 -29 3 -8 11 -15 18 -15 6 0 22 -9 35 -20 13 -11 31 -20 40 -20
10 0 20 -8 22 -17 5 -18 85 -49 96 -39 3 3 10 -1 16 -9 6 -8 23 -16 39 -17 18
-2 26 -7 22 -16 -2 -7 0 -10 5 -7 5 3 45 7 87 9 43 2 69 0 58 -4 -15 -5 -9 -9
25 -14 25 -4 53 -8 63 -9 9 -1 17 -5 17 -10 0 -12 69 -39 82 -31 7 5 9 -1 4
-20 -12 -50 17 -45 162 26 23 11 42 25 42 29 0 5 11 9 24 9 14 0 28 5 31 10 4
6 10 8 15 5 4 -3 13 2 20 10 7 8 18 15 25 15 7 0 37 11 65 24 29 14 59 22 66
19 8 -3 14 1 14 11 0 13 4 15 18 8 9 -5 23 -7 30 -5 20 8 13 -8 -13 -29 -20
-15 -25 -28 -23 -52 2 -22 -1 -30 -10 -28 -8 1 -12 -3 -10 -10 3 -7 -8 -21
-24 -31 -19 -11 -28 -24 -26 -36 2 -10 -6 -29 -17 -42 -11 -12 -14 -19 -8 -15
9 5 11 2 7 -8 -3 -8 -12 -17 -20 -20 -9 -3 -12 -11 -9 -16 8 -13 -38 -94 -63
-112 -17 -12 -52 -76 -52 -95 0 -5 -8 -20 -17 -33 -10 -14 -18 -29 -19 -35
-28 -178 -27 -205 3 -205 10 0 14 -6 10 -19 -3 -14 -1 -18 9 -14 8 3 14 0 14
-6 0 -6 -4 -11 -9 -11 -5 0 -11 -9 -14 -20 -4 -16 0 -20 21 -20 15 0 33 -4 41
-9 21 -13 61 4 96 42 42 43 95 69 135 65 34 -3 56 -28 25 -28 -15 0 -15 -2 -1
-15 8 -8 19 -15 25 -15 6 0 11 -2 11 -5 0 -10 -59 -115 -79 -141 -18 -23 -25
-44 -35 -109 -2 -11 1 -29 6 -40 8 -19 8 -19 -5 -2 -17 21 -28 22 -21 3 3 -9
-3 -20 -15 -28 -14 -9 -19 -19 -15 -35 6 -22 -3 -29 -31 -23 -5 1 -4 -4 3 -11
6 -7 12 -20 12 -28 0 -10 -3 -12 -8 -6 -4 6 -17 10 -30 11 -19 1 -22 -3 -18
-22 4 -13 1 -26 -5 -30 -6 -3 -9 -15 -6 -25 3 -12 0 -19 -9 -19 -8 0 -14 -4
-14 -10 0 -5 -10 -10 -22 -10 -18 0 -23 -6 -25 -28 -1 -15 3 -33 9 -40 8 -9 6
-12 -6 -12 -11 0 -14 -5 -10 -12 5 -8 0 -9 -14 -6 -16 5 -22 2 -22 -10 0 -10
-16 -35 -35 -56 -19 -22 -32 -43 -29 -48 3 -4 -1 -8 -8 -8 -8 0 -21 -9 -31
-20 -9 -11 -14 -20 -10 -20 3 0 -5 -10 -18 -23 -41 -40 -79 -89 -79 -101 0 -7
6 -18 13 -25 10 -11 8 -12 -12 -6 -21 6 -23 5 -18 -16 4 -14 0 -27 -10 -34
-12 -9 -13 -16 -4 -33 16 -30 14 -49 -3 -26 -20 27 -62 26 -62 -1 1 -15 -4
-19 -23 -17 -18 3 -22 0 -18 -12 3 -8 2 -18 -3 -21 -6 -4 -10 -15 -10 -25 0
-16 -5 -18 -30 -14 -22 5 -31 2 -36 -10 -5 -13 -17 -17 -48 -16 -22 1 -45 1
-51 0 -55 -12 -115 18 -115 56 0 9 -8 18 -19 21 -10 2 -25 16 -32 30 -7 13
-21 29 -31 34 -10 5 -18 16 -18 25 0 8 -18 39 -41 69 -38 50 -46 74 -50 145
-2 36 9 117 20 143 6 16 11 34 12 40 0 9 2 8 6 0 10 -27 21 -11 12 17 -8 20
-7 39 0 62 6 18 10 51 10 73 -1 22 4 62 10 89 7 31 8 53 2 59 -6 6 -5 16 1 27
9 13 6 22 -11 39 -18 18 -20 25 -10 37 10 13 6 18 -13 15 -13 -2 -9 47 5 52 9
3 9 9 1 24 -7 11 -12 54 -12 97 0 55 -4 82 -15 94 -9 10 -18 43 -20 79 -3 33
-10 70 -16 81 -6 12 -11 28 -11 37 0 9 -4 21 -10 28 -47 58 -60 77 -66 100 -3
15 -15 32 -25 38 -11 5 -19 14 -19 20 0 12 -97 129 -117 142 -7 4 -13 12 -13
18 0 5 -5 15 -10 22 -36 42 -100 134 -100 144 0 7 -14 36 -31 65 -33 55 -72
138 -83 174 -7 22 16 40 35 28 16 -10 10 18 -7 31 -9 6 -18 26 -20 43 -4 32 8
42 23 19z m1043 -417 c0 -5 -5 -10 -11 -10 -5 0 -7 5 -4 10 3 6 8 10 11 10 2
0 4 -4 4 -10z m390 -750 c0 -5 -4 -10 -10 -10 -5 0 -10 5 -10 10 0 6 5 10 10
10 6 0 10 -4 10 -10z m80 -380 c0 -5 -2 -10 -4 -10 -3 0 -8 5 -11 10 -3 6 -1
10 4 10 6 0 11 -4 11 -10z m-1130 -698 c0 -13 -12 -22 -22 -16 -10 6 -1 24 13
24 5 0 9 -4 9 -8z"/>
<path d="M2961 5814 c0 -11 3 -14 6 -6 3 7 2 16 -1 19 -3 4 -6 -2 -5 -13z"/>
<path d="M3130 5454 c-19 -7 -47 -13 -61 -13 -15 -1 -29 -8 -33 -16 -3 -8 -14
-15 -24 -15 -31 0 -70 -37 -92 -87 -19 -43 -19 -46 -3 -59 20 -15 61 -10 106
13 39 20 161 42 214 39 49 -3 86 -26 41 -26 -52 0 -37 -17 16 -19 30 0 66 -5
81 -11 14 -5 40 -10 57 -10 35 0 98 -20 98 -31 0 -7 -48 -13 -195 -24 -51 -4
-111 -18 -165 -37 -47 -17 -99 -30 -117 -29 -38 1 -51 -14 -30 -37 8 -9 18
-34 22 -55 5 -26 16 -43 34 -54 14 -9 37 -27 51 -39 21 -19 39 -24 116 -28 49
-2 110 -9 134 -16 30 -8 69 -9 120 -4 70 8 155 8 243 2 31 -2 37 -6 37 -25 0
-31 16 -37 34 -12 13 19 13 24 0 44 -13 20 -13 26 3 54 10 17 21 31 26 31 4 0
7 5 7 10 0 6 -6 10 -14 10 -8 0 -16 16 -19 42 -3 24 -11 44 -16 46 -6 2 -9 8
-5 13 3 5 -1 9 -9 9 -7 0 -19 11 -25 25 -16 35 -15 37 7 25 11 -5 29 -10 40
-10 12 0 21 -4 21 -10 0 -5 3 -10 8 -10 4 0 7 31 7 70 0 49 -4 73 -15 83 -15
15 -124 55 -170 63 -14 3 -38 9 -55 14 -67 22 -159 40 -197 40 -22 0 -54 6
-71 14 -88 38 -160 48 -207 30z m270 -273 c0 -9 -99 -25 -107 -17 -3 2 15 9
39 14 58 13 68 14 68 3z m173 -25 c42 -19 72 -44 64 -53 -4 -3 -15 1 -25 10
-9 9 -38 25 -62 36 -25 11 -37 21 -27 21 10 0 32 -7 50 -14z m-261 -99 c-3
-37 1 -63 12 -85 9 -17 16 -33 16 -36 0 -14 -93 29 -110 51 -26 33 -25 55 3
80 64 58 85 55 79 -10z m333 -15 c27 -24 60 -48 72 -53 32 -12 29 -27 -4 -23
-16 2 -20 1 -10 -2 31 -10 18 -23 -21 -22 -22 0 -67 -3 -100 -7 -34 -4 -62 -5
-62 -2 0 3 10 22 21 42 17 29 20 46 16 86 -6 48 -6 49 16 38 12 -7 44 -32 72
-57z m57 29 c18 -16 31 -32 28 -34 -3 -3 -22 10 -42 29 -21 19 -33 34 -28 34
5 0 24 -13 42 -29z m-284 -18 c-5 -26 -38 -29 -38 -4 0 15 6 21 21 21 14 0 19
-5 17 -17z m92 -8 c0 -8 -7 -15 -15 -15 -8 0 -15 7 -15 15 0 8 7 15 15 15 8 0
15 -7 15 -15z m280 -60 c0 -7 6 -16 13 -18 6 -3 3 -6 -9 -6 -27 -1 -33 6 -27
29 6 21 23 17 23 -5z"/>
<path d="M3759 4814 c-11 -14 -10 -15 11 -12 13 1 25 9 28 16 5 17 -23 15 -39
-4z"/>
<path d="M4391 4514 c0 -11 3 -14 6 -6 3 7 2 16 -1 19 -3 4 -6 -2 -5 -13z"/>
<path d="M4332 4457 c4 -26 25 -33 30 -10 3 16 5 16 26 -5 27 -27 32 -27 32
-3 0 26 -20 40 -58 39 -27 -1 -32 -5 -30 -21z"/>
<path d="M3787 4268 c-45 -20 -48 -23 -43 -50 4 -20 2 -28 -8 -28 -22 0 -27
-29 -7 -39 25 -14 95 -21 110 -11 18 10 5 30 -20 30 -24 0 -24 15 1 40 15 15
33 20 78 20 31 0 64 5 72 10 13 9 11 13 -10 30 -33 26 -110 25 -173 -2z"/>
<path d="M4194 4270 c-30 -12 -94 -77 -94 -95 0 -10 10 -15 30 -15 25 0 30 4
30 23 0 25 -12 25 165 4 14 -1 21 5 23 19 6 40 -103 85 -154 64z"/>
<path d="M3650 2390 c0 -5 5 -10 11 -10 5 0 7 5 4 10 -3 6 -8 10 -11 10 -2 0
-4 -4 -4 -10z"/>
<path d="M3705 2360 c3 -5 11 -10 16 -10 6 0 7 5 4 10 -3 6 -11 10 -16 10 -6
0 -7 -4 -4 -10z"/>
<path d="M3990 2310 c8 -5 20 -10 25 -10 6 0 3 5 -5 10 -8 5 -19 10 -25 10 -5
0 -3 -5 5 -10z"/>
<path d="M2431 4353 c0 -5 8 -25 17 -45 13 -28 21 -35 31 -29 11 7 10 15 -8
45 -20 32 -42 48 -40 29z"/>
</g>
</svg>
